<svg xmlns="http://www.w3.org/2000/svg" width="160" height="160" viewBox="0 0 160 160">
  <defs>
    <linearGradient id="bodyRed" x1="0" y1="0" x2="0" y2="1">
      <stop offset="0%" stop-color="#ff6b6b" />
      <stop offset="100%" stop-color="#e11d48" />
    </linearGradient>
    <linearGradient id="bodyGold" x1="0" y1="0" x2="1" y2="1">
      <stop offset="0%" stop-color="#fde68a" />
      <stop offset="100%" stop-color="#f59e0b" />
    </linearGradient>
  </defs>

  <g transform="rotate(-18 80 80)">
    <rect x="28" y="56" width="42" height="70" rx="10" fill="url(#bodyRed)" />
    <rect x="90" y="38" width="42" height="78" rx="10" fill="url(#bodyRed)" />

    <rect x="28" y="56" width="42" height="12" rx="6" fill="url(#bodyGold)" />
    <rect x="28" y="114" width="42" height="12" rx="6" fill="url(#bodyGold)" />
    <rect x="90" y="38" width="42" height="12" rx="6" fill="url(#bodyGold)" />
    <rect x="90" y="104" width="42" height="12" rx="6" fill="url(#bodyGold)" />

    <path d="M52 54 C52 40, 64 34, 76 26" stroke="#92400e" stroke-width="4" fill="none" stroke-linecap="round" />
    <path d="M112 36 C112 24, 122 18, 132 12" stroke="#92400e" stroke-width="4" fill="none" stroke-linecap="round" />

    <circle cx="80" cy="20" r="3" fill="#f59e0b" />
    <path d="M80 8 L80 14 M68 20 L74 20 M86 20 L92 20 M72 12 L76 16 M84 16 L88 12" stroke="#f59e0b" stroke-width="3" stroke-linecap="round" />
  </g>
</svg>
